Coordinates
version=1
nRows=17
nColumns=33
inDegrees=yes

Units are S.I. units (second, meters, Newtons, ...)
Angles are in degrees.

endheader
time	ground_thorax_rot_x	ground_thorax_rot_y	ground_thorax_rot_z	ground_thorax_tx	ground_thorax_ty	ground_thorax_tz	clav_prot_r	clav_elev_r	scapula_abduction_r	scapula_elevation_r	scapula_upward_rot_r	scapula_winging_r	shoulder_elv_r	plane_of_elev_r	axial_rot_r	elbow_flexion_r	pro_sup_r	wrist_flex_r	wrist_dev_r	clav_prot_l	clav_elev_l	scapula_abduction_l	scapula_elevation_l	scapula_upward_rot_l	scapula_winging_l	shoulder_elv_l	plane_of_elev_l	axial_rot_l	elbow_flexion_l	pro_sup_l	wrist_flex_l	wrist_dev_l
      6.34000000	    -37.68247648	     -2.50092643	      3.47316468	    -51.29857043	    805.22097773	      2.49223320	      5.77811952	    -45.00000000	     45.00000000	    -45.00000000	    -10.42383442	  -1171.62491416	  -4256.23205963	     29.00231328	     76.27321047	   1449.22114290	    362.35652208	     16.40438157	     12.94310850	     16.62598814	     41.16778171	    -45.00000000	    -41.86522151	    -31.08045419	   1879.25994087	   1505.76163482	     24.46235500	    -24.56967547	    367.55630412	    372.35417937	     15.06034021	    -19.77962061
      6.35000000	    -37.67758845	     -2.97358701	      3.71479841	    -49.10902340	    802.36036503	      3.37214491	      5.71314008	    -45.00000000	     45.00000000	    -45.00000000	    -10.66535076	  -1171.27413734	  -4256.41133094	     28.65455060	     77.05412599	   1449.15317986	    363.68637100	     16.36707342	     12.83840069	     17.14437097	     40.90881250	    -45.00000000	    -41.38135231	    -31.04004641	   1879.16092148	   1505.48875381	     24.41929305	    -24.84127571	    367.05542812	    370.93292786	     15.20190681	    -19.32444350
      6.36000000	    -37.64799090	     -3.30576445	      3.74306468	    -47.17132508	    799.75197574	      4.25772042	      5.90001645	    -45.00000000	     45.00000000	    -45.00000000	    -10.94916953	  -1171.14819975	  -4256.57122610	     28.63110514	     77.58138702	   1449.16099336	    364.25200941	     16.33350783	     12.67009376	     16.88375092	     40.55714910	    -45.00000000	    -40.81428314	    -30.81008966	   1879.27078132	   1505.22523173	     24.51601445	    -25.14738375	    366.65520102	    370.32922956	     15.28237200	    -18.98437000
      6.37000000	    -37.53354182	     -3.78788348	      4.01281232	    -45.50095400	    797.40385582	      5.12797433	      6.29478984	    -45.00000000	     45.00000000	    -45.00000000	    -11.62339993	  -1171.23320031	  -4256.73197422	     28.77458206	     78.17235611	   1449.06735399	    364.47339705	     16.26743118	     12.38096106	     16.25717776	     40.09871290	    -45.00000000	    -40.10301885	    -30.82963246	   1879.37284301	   1505.22862607	     24.49151410	    -25.50052175	    366.44578760	    370.16422616	     15.39536919	    -18.72131936
      6.38000000	    -37.49870049	     -3.97460768	      3.89453272	    -44.10547730	    795.31683865	      5.95893018	      6.19533977	    -45.00000000	     45.00000000	    -45.00000000	    -11.71780877	  -1171.04865684	  -4256.87753271	     28.64068977	     78.76858709	   1448.93068587	    364.64119757	     16.14366314	     12.28481040	     16.07455671	     39.70095196	    -45.00000000	    -39.48657334	    -30.14185804	   1879.26252633	   1505.19536959	     24.15325323	    -25.66659799	    366.09673666	    370.11492557	     15.48016934	    -18.45233879
      6.39000000	    -37.52038104	     -4.04626559	      3.55613395	    -42.99871279	    793.50500848	      6.72774100	      6.05708970	    -45.00000000	     45.00000000	    -45.00000000	    -11.47485991	  -1170.81931669	  -4256.99010475	     28.43479232	     79.11810921	   1448.91695712	    364.81553199	     16.08691908	     12.34457109	     16.13294668	     39.59702918	    -45.00000000	    -39.11248701	    -29.54209239	   1879.31339563	   1504.96154973	     24.16066533	    -25.79046977	    365.72837920	    370.09293374	     15.40798540	    -18.24310418
      6.40000000	    -37.30457374	     -4.73393098	      3.81534692	    -42.19270108	    791.97845399	      7.41510383	      5.98994706	    -45.00000000	     45.00000000	    -45.00000000	    -12.12117953	  -1170.42423867	  -4256.76536881	     28.18476670	     79.82359045	   1448.89208949	    365.10557735	     15.96936377	     12.53277842	     15.86433485	     38.50887019	    -45.00000000	    -38.30965612	    -28.92679444	   1879.22152180	   1504.96262719	     23.31557307	    -25.70672861	    365.28981563	    370.10060119	     15.31422263	    -17.91997244
      6.41000000	    -37.40836822	     -4.58302544	      3.26804150	    -41.69344143	    790.72974158	      8.01163447	      6.09693990	    -45.00000000	     45.00000000	    -45.00000000	    -11.61086353	  -1170.75961206	  -4257.14973884	     28.31978169	     79.62398097	   1448.84536688	    365.33145211	     16.02596186	     12.34809830	     16.02022013	     39.01909541	    -45.00000000	    -38.24118645	    -28.94294357	   1879.67585031	   1504.63155799	     24.17536978	    -26.16772673	    365.19136075	    370.10486644	     15.18903105	    -17.88656815
      6.42000000	    -37.50246381	     -4.70726859	      2.93765059	    -41.50286333	    789.73782779	      8.50924477	      5.93520630	    -45.00000000	     45.00000000	    -45.00000000	    -11.74880486	  -1170.47115769	  -4257.22027508	     28.14817438	     79.88168308	   1448.84136419	    365.85173649	     15.97001200	     12.35006503	     15.96068805	     38.92900492	    -45.00000000	    -38.11445041	    -28.40856180	   1879.32015983	   1504.79631723	     23.72846918	    -26.15559711	    364.88223620	    370.07114139	     15.20830378	    -17.69562601
      6.43000000	    -37.53256153	     -4.99318936	      2.66386877	    -41.62152888	    788.96925234	      8.90732674	      5.91802246	    -45.00000000	     45.00000000	    -45.00000000	    -11.83302608	  -1170.33747987	  -4257.25640506	     28.05121412	     80.04670459	   1448.88635844	    366.44801546	     16.01868655	     12.43306603	     15.87378829	     38.87097803	    -45.00000000	    -37.97224318	    -28.16985199	   1879.48985120	   1504.64530411	     23.71655925	    -26.09568114	    364.61629711	    370.02133558	     15.05701949	    -17.59763686
      6.44000000	    -37.52149200	     -5.22632666	      2.45514874	    -42.05356474	    788.38612455	      9.20868715	      5.91321627	    -45.00000000	     45.00000000	    -45.00000000	    -11.99285161	  -1170.37050045	  -4257.30616371	     28.00623165	     80.19349425	   1448.90351412	    367.08321892	     16.06054464	     12.37921629	     15.83930665	     38.93882733	    -45.00000000	    -37.73947345	    -27.94193242	   1879.59681101	   1504.64723924	     23.63222378	    -25.93577988	    364.53723752	    369.98224890	     14.91172466	    -17.55680994
      6.45000000	    -37.59506281	     -5.36966158	      2.10983286	    -42.80444975	    787.95220494	      9.41817184	      5.93509570	    -45.00000000	     45.00000000	    -45.00000000	    -12.09002266	  -1170.33197336	  -4257.43850927	     27.94323249	     80.35518178	   1448.79354230	    367.77454710	     16.08986108	     12.35247255	     15.79290288	     39.04720639	    -45.00000000	    -37.74280585	    -27.86237117	   1879.73287865	   1504.63026320	     23.76680736	    -25.80464445	    364.34802011	    370.01115467	     14.88042174	    -17.53881581
      6.46000000	    -37.65217163	     -5.57742732	      1.93841332	    -43.88308300	    787.63227598	      9.54396495	      5.92409998	    -45.00000000	     45.00000000	    -45.00000000	    -12.31524486	  -1170.47163892	  -4257.42218479	     27.88169909	     80.56880925	   1448.97602316	    368.46298962	     16.19813035	     12.28309635	     15.77274949	     39.16171119	    -45.00000000	    -37.70569687	    -27.65545320	   1879.81137122	   1504.64628699	     23.67531418	    -25.46943691	    364.19199145	    370.05748934	     14.74843749	    -17.53611358
      6.47000000	    -37.77837616	     -5.69016869	      1.53489824	    -45.29855509	    787.39848415	      9.59441111	      5.99555186	    -45.00000000	     45.00000000	    -45.00000000	    -12.47195621	  -1170.46522854	  -4257.56883445	     27.84571452	     80.84295832	   1448.88060057	    369.18767261	     16.25737120	     12.20119149	     15.77106291	     39.21309701	    -45.00000000	    -37.93187397	    -27.83353455	   1879.97478053	   1504.56431860	     23.93475652	    -25.29140002	    364.11623815	    370.20435059	     14.88411317	    -17.58264307
      6.48000000	    -37.76763977	     -6.07194229	      1.55034856	    -47.05088319	    787.23017744	      9.57832401	      6.03102514	    -45.00000000	     45.00000000	    -45.00000000	    -12.85506307	  -1170.64333262	  -4257.48059182	     27.77926893	     81.16203604	   1449.01361676	    369.91025198	     16.34993404	     12.13742486	     15.81130864	     39.36891283	    -45.00000000	    -37.89218719	    -27.87962134	   1879.95418305	   1504.60043560	     23.68379081	    -24.81859747	    363.89269103	    370.35231779	     14.67957566	    -17.60314337
      6.49000000	    -37.85186700	     -6.12176769	      1.16071918	    -49.13876796	    787.11241991	      9.50483728	      6.12868841	    -45.00000000	     45.00000000	    -45.00000000	    -12.96024791	  -1170.88191133	  -4257.58893695	     27.85619653	     81.44759889	   1448.97500021	    370.52855709	     16.46137142	     11.97280068	     15.85007333	     39.45591467	    -45.00000000	    -38.10812198	    -28.20103638	   1880.25453143	   1504.47605954	     24.15358997	    -24.56410271	    363.88577471	    370.54279446	     14.83982214	    -17.69969773
      6.50000000	    -37.84327404	     -6.56979859	      1.35078589	    -51.55448787	    787.03640450	      9.38231514	      6.13130601	    -45.00000000	     45.00000000	    -45.00000000	    -13.45395541	  -1171.07798504	  -4257.36748796	     27.56679419	     81.96089825	   1449.12288610	    371.11657757	     16.52563691	     12.01804766	     15.84145416	     39.58523148	    -45.00000000	    -38.06930360	    -28.13839275	   1880.22499438	   1504.54804931	     23.56452874	    -24.02993001	    363.83284980	    370.66803258	     14.50433683	    -17.78060871
